{
  "accessors": [
    {
      "bufferView": 3,
      "componentType": 5126,
      "count": 1255,
      "max": [
        0.44247913360595703,
        0.7718865871429443,
        0.4424794614315033
      ],
      "min": [
        -0.44247913360595703,
        0.18894174695014954,
        -0.4424789249897003
      ],
      "type": "VEC3"
    },
    {
      "bufferView": 3,
      "byteOffset": 15060,
      "componentType": 5126,
      "count": 1255,
      "max": [
        1.0,
        1.0,
        1.0
      ],
      "min": [
        -1.0,
        -0.9999960660934448,
        -1.0
      ],
      "type": "VEC3"
    },
    {
      "bufferView": 2,
      "componentType": 5126,
      "count": 1255,
      "max": [
        0.9885434508323669,
        0.9928847551345825
      ],
      "min": [
        0.4899873435497284,
        0.000348046887665987
      ],
      "type": "VEC2"
    },
    {
      "bufferView": 1,
      "componentType": 5125,
      "count": 6336,
      "type": "SCALAR"
    },
    {
      "bufferView": 3,
      "byteOffset": 30120,
      "componentType": 5126,
      "count": 1558,
      "max": [
        0.8594297766685486,
        1.3699655532836914,
        0.04666263237595558
      ],
      "min": [
        -0.8594297766685486,
        0.9033408164978027,
        -0.13089826703071594
      ],
      "type": "VEC3"
    },
    {
      "bufferView": 3,
      "byteOffset": 48816,
      "componentType": 5126,
      "count": 1558,
      "max": [
        0.9964513182640076,
        0.9964538216590881,
        1.0
      ],
      "min": [
        -0.9964513182640076,
        -0.9964538216590881,
        -1.0
      ],
      "type": "VEC3"
    },
    {
      "bufferView": 2,
      "byteOffset": 10040,
      "componentType": 5126,
      "count": 1558,
      "max": [
        0.9779663681983948,
        0.8820409178733826
      ],
      "min": [
        0.4899873435497284,
        0.4829806089401245
      ],
      "type": "VEC2"
    },
    {
      "bufferView": 1,
      "byteOffset": 25344,
      "componentType": 5125,
      "count": 8064,
      "type": "SCALAR"
    },
    {
      "bufferView": 3,
      "byteOffset": 67512,
      "componentType": 5126,
      "count": 450,
      "max": [
        0.27089715003967285,
        1.310857892036438,
        0.42283278703689575
      ],
      "min": [
        -0.28014516830444336,
        1.1089913845062256,
        0.32856249809265137
      ],
      "type": "VEC3"
    },
    {
      "bufferView": 3,
      "byteOffset": 72912,
      "componentType": 5126,
      "count": 450,
      "max": [
        0.9500333070755005,
        0.8560065031051636,
        0.9991782903671265
      ],
      "min": [
        -0.9500333070755005,
        -0.6233216524124146,
        0.2664591372013092
      ],
      "type": "VEC3"
    },
    {
      "bufferView": 2,
      "byteOffset": 22504,
      "componentType": 5126,
      "count": 450,
      "max": [
        0.9908669590950012,
        0.991365909576416
      ],
      "min": [
        0.9255727529525757,
        0.9262288212776184
      ],
      "type": "VEC2"
    },
    {
      "bufferView": 1,
      "byteOffset": 57600,
      "componentType": 5125,
      "count": 2496,
      "type": "SCALAR"
    },
    {
      "bufferView": 3,
      "byteOffset": 78312,
      "componentType": 5126,
      "count": 418,
      "max": [
        0.44502076506614685,
        0.28229913115501404,
        0.443855881690979
      ],
      "min": [
        -0.44502076506614685,
        0.0026268362998962402,
        -0.3000977635383606
      ],
      "type": "VEC3"
    },
    {
      "bufferView": 3,
      "byteOffset": 83328,
      "componentType": 5126,
      "count": 418,
      "max": [
        0.9964475035667419,
        0.9984260201454163,
        0.9430403709411621
      ],
      "min": [
        -0.9964475035667419,
        -0.9999963045120239,
        -0.9761242866516113
      ],
      "type": "VEC3"
    },
    {
      "bufferView": 2,
      "byteOffset": 26104,
      "componentType": 5126,
      "count": 418,
      "max": [
        0.5804744362831116,
        0.9642829298973083
      ],
      "min": [
        0.000348046887665987,
        0.6660642623901367
      ],
      "type": "VEC2"
    },
    {
      "bufferView": 1,
      "byteOffset": 67584,
      "componentType": 5125,
      "count": 2016,
      "type": "SCALAR"
    },
    {
      "bufferView": 3,
      "byteOffset": 88344,
      "componentType": 5126,
      "count": 1028,
      "max": [
        0.7055389881134033,
        0.6629257202148438,
        0.14589715003967285
      ],
      "min": [
        -0.7055389881134033,
        0.37113165855407715,
        -0.14589697122573853
      ],
      "type": "VEC3"
    },
    {
      "bufferView": 3,
      "byteOffset": 100680,
      "componentType": 5126,
      "count": 1028,
      "max": [
        1.0,
        1.0,
        1.0
      ],
      "min": [
        -1.0,
        -1.0,
        -1.0
      ],
      "type": "VEC3"
    },
    {
      "bufferView": 2,
      "byteOffset": 29448,
      "componentType": 5126,
      "count": 1028,
      "max": [
        0.8198195099830627,
        0.9928985834121704
      ],
      "min": [
        0.5851777195930481,
        0.8713520765304565
      ],
      "type": "VEC2"
    },
    {
      "bufferView": 1,
      "byteOffset": 75648,
      "componentType": 5125,
      "count": 5760,
      "type": "SCALAR"
    },
    {
      "bufferView": 3,
      "byteOffset": 113016,
      "componentType": 5126,
      "count": 1004,
      "max": [
        0.44537878036499023,
        1.5759748220443726,
        0.4465723931789398
      ],
      "min": [
        -0.44546860456466675,
        0.6899855732917786,
        -0.44254013895988464
      ],
      "type": "VEC3"
    },
    {
      "bufferView": 3,
      "byteOffset": 125064,
      "componentType": 5126,
      "count": 1004,
      "max": [
        0.9999157190322876,
        0.9995616674423218,
        0.9997943639755249
      ],
      "min": [
        -0.9999191761016846,
        -0.9998918771743774,
        -0.9999991655349731
      ],
      "type": "VEC3"
    },
    {
      "bufferView": 2,
      "byteOffset": 37672,
      "componentType": 5126,
      "count": 1004,
      "max": [
        0.9834981560707092,
        0.9771946668624878
      ],
      "min": [
        0.000348046887665987,
        0.000348046887665987
      ],
      "type": "VEC2"
    },
    {
      "bufferView": 1,
      "byteOffset": 98688,
      "componentType": 5125,
      "count": 4758,
      "type": "SCALAR"
    },
    {
      "bufferView": 3,
      "byteOffset": 137112,
      "componentType": 5126,
      "count": 2170,
      "max": [
        0.1324654221534729,
        0.4971873462200165,
        -0.28924500942230225
      ],
      "min": [
        -0.13246536254882813,
        0.23225651681423187,
        -1.3005659580230713
      ],
      "type": "VEC3"
    },
    {
      "bufferView": 3,
      "byteOffset": 163152,
      "componentType": 5126,
      "count": 2170,
      "max": [
        1.0,
        1.0,
        1.0
      ],
      "min": [
        -1.0,
        -1.0,
        -1.0
      ],
      "type": "VEC3"
    },
    {
      "bufferView": 2,
      "byteOffset": 45704,
      "componentType": 5126,
      "count": 2170,
      "max": [
        0.9904886484146118,
        0.9880241751670837
      ],
      "min": [
        0.03102484717965126,
        0.1848601996898651
      ],
      "type": "VEC2"
    },
    {
      "bufferView": 1,
      "byteOffset": 117720,
      "componentType": 5125,
      "count": 11328,
      "type": "SCALAR"
    },
    {
      "bufferView": 5,
      "componentType": 5126,
      "count": 17,
      "max": [
        1.0,
        1.0000001192092896,
        1.0000001192092896,
        0.0,
        1.0,
        1.0,
        1.0,
        0.0,
        1.0000001192092896,
        5.0267146889382275e-08,
        1.0,
        0.0,
        1.1324677467346191,
        0.27559345960617065,
        0.0,
        1.0
      ],
      "min": [
        -3.795063781053586e-15,
        -1.0000001192092896,
        -1.0000001192092896,
        0.0,
        -1.0,
        -1.000000238418579,
        0.0,
        0.0,
        -1.0000001192092896,
        -1.0,
        -3.139165016818879e-07,
        0.0,
        -1.1324677467346191,
        -0.7886682748794556,
        -0.3607260286808014,
        1.0
      ],
      "type": "MAT4"
    },
    {
      "bufferView": 0,
      "componentType": 5123,
      "count": 1255,
      "type": "VEC4"
    },
    {
      "bufferView": 4,
      "componentType": 5126,
      "count": 1255,
      "max": [
        1.0,
        0.0,
        0.0,
        0.0
      ],
      "min": [
        1.0,
        0.0,
        0.0,
        0.0
      ],
      "type": "VEC4"
    },
    {
      "bufferView": 0,
      "byteOffset": 10040,
      "componentType": 5123,
      "count": 1558,
      "type": "VEC4"
    },
    {
      "bufferView": 4,
      "byteOffset": 20080,
      "componentType": 5126,
      "count": 1558,
      "max": [
        1.0,
        0.0,
        0.0,
        0.0
      ],
      "min": [
        1.0,
        0.0,
        0.0,
        0.0
      ],
      "type": "VEC4"
    },
    {
      "bufferView": 0,
      "byteOffset": 22504,
      "componentType": 5123,
      "count": 450,
      "type": "VEC4"
    },
    {
      "bufferView": 4,
      "byteOffset": 45008,
      "componentType": 5126,
      "count": 450,
      "max": [
        1.0,
        0.0,
        0.0,
        0.0
      ],
      "min": [
        1.0,
        0.0,
        0.0,
        0.0
      ],
      "type": "VEC4"
    },
    {
      "bufferView": 0,
      "byteOffset": 26104,
      "componentType": 5123,
      "count": 418,
      "type": "VEC4"
    },
    {
      "bufferView": 4,
      "byteOffset": 52208,
      "componentType": 5126,
      "count": 418,
      "max": [
        1.0,
        0.0,
        0.0,
        0.0
      ],
      "min": [
        1.0,
        0.0,
        0.0,
        0.0
      ],
      "type": "VEC4"
    },
    {
      "bufferView": 0,
      "byteOffset": 29448,
      "componentType": 5123,
      "count": 1028,
      "type": "VEC4"
    },
    {
      "bufferView": 4,
      "byteOffset": 58896,
      "componentType": 5126,
      "count": 1028,
      "max": [
        1.0,
        0.0,
        0.0,
        0.0
      ],
      "min": [
        1.0,
        0.0,
        0.0,
        0.0
      ],
      "type": "VEC4"
    },
    {
      "bufferView": 0,
      "byteOffset": 37672,
      "componentType": 5123,
      "count": 1004,
      "type": "VEC4"
    },
    {
      "bufferView": 4,
      "byteOffset": 75344,
      "componentType": 5126,
      "count": 1004,
      "max": [
        1.0,
        0.0,
        0.0,
        0.0
      ],
      "min": [
        1.0,
        0.0,
        0.0,
        0.0
      ],
      "type": "VEC4"
    },
    {
      "bufferView": 0,
      "byteOffset": 45704,
      "componentType": 5123,
      "count": 2170,
      "type": "VEC4"
    },
    {
      "bufferView": 4,
      "byteOffset": 91408,
      "componentType": 5126,
      "count": 2170,
      "max": [
        1.0,
        0.10497292876243591,
        0.0,
        0.0
      ],
      "min": [
        0.8950271010398865,
        0.0,
        0.0,
        0.0
      ],
      "type": "VEC4"
    }
  ],
  "asset": {
    "extras": {
      "author": "xinus22 (https://sketchfab.com/xinus22)",
      "license": "CC-BY-4.0 (http://creativecommons.org/licenses/by/4.0/)",
      "source": "https://sketchfab.com/3d-models/data-the-monkey-a67c0e4268a047da988f6968e5103014",
      "title": "Data the Monkey"
    },
    "generator": "Sketchfab-12.65.0",
    "version": "2.0"
  },
  "bufferViews": [
    {
      "buffer": 0,
      "byteLength": 63064,
      "byteStride": 8,
      "name": "shortBufferViews",
      "target": 34962
    },
    {
      "buffer": 0,
      "byteLength": 163032,
      "byteOffset": 63064,
      "name": "floatBufferViews",
      "target": 34963
    },
    {
      "buffer": 0,
      "byteLength": 63064,
      "byteOffset": 226096,
      "byteStride": 8,
      "name": "floatBufferViews",
      "target": 34962
    },
    {
      "buffer": 0,
      "byteLength": 189192,
      "byteOffset": 289160,
      "byteStride": 12,
      "name": "floatBufferViews",
      "target": 34962
    },
    {
      "buffer": 0,
      "byteLength": 126128,
      "byteOffset": 478352,
      "byteStride": 16,
      "name": "floatBufferViews",
      "target": 34962
    },
    {
      "buffer": 0,
      "byteLength": 1088,
      "byteOffset": 604480,
      "name": "floatBufferViews"
    }
  ],
  "buffers": [
    {
      "byteLength": 605568,
      "uri": "scene.bin"
    }
  ],
  "images": [
    {
      "uri": "textures/Material_baseColor.png"
    }
  ],
  "materials": [
    {
      "doubleSided": true,
      "emissiveFactor": [
        0.5035143400884058,
        0.5035143400884058,
        0.5035143400884058
      ],
      "emissiveTexture": {
        "index": 0
      },
      "name": "Material",
      "pbrMetallicRoughness": {
        "baseColorFactor": [
          0.7191704819753267,
          0.7191704819753267,
          0.7191704819753267,
          1.0
        ],
        "baseColorTexture": {
          "index": 0
        },
        "metallicFactor": 0.0,
        "roughnessFactor": 0.5
      }
    },
    {
      "doubleSided": true,
      "emissiveFactor": [
        1.0,
        1.0,
        1.0
      ],
      "emissiveTexture": {
        "index": 0
      },
      "name": "monketex",
      "pbrMetallicRoughness": {
        "baseColorFactor": [
          0.0,
          0.0,
          0.0,
          1.0
        ]
      }
    }
  ],
  "meshes": [
    {
      "name": "Object_0",
      "primitives": [
        {
          "attributes": {
            "JOINTS_0": 29,
            "NORMAL": 1,
            "POSITION": 0,
            "TEXCOORD_0": 2,
            "WEIGHTS_0": 30
          },
          "indices": 3,
          "material": 0,
          "mode": 4
        }
      ]
    },
    {
      "name": "Object_1",
      "primitives": [
        {
          "attributes": {
            "JOINTS_0": 31,
            "NORMAL": 5,
            "POSITION": 4,
            "TEXCOORD_0": 6,
            "WEIGHTS_0": 32
          },
          "indices": 7,
          "material": 0,
          "mode": 4
        }
      ]
    },
    {
      "name": "Object_2",
      "primitives": [
        {
          "attributes": {
            "JOINTS_0": 33,
            "NORMAL": 9,
            "POSITION": 8,
            "TEXCOORD_0": 10,
            "WEIGHTS_0": 34
          },
          "indices": 11,
          "material": 1,
          "mode": 4
        }
      ]
    },
    {
      "name": "Object_3",
      "primitives": [
        {
          "attributes": {
            "JOINTS_0": 35,
            "NORMAL": 13,
            "POSITION": 12,
            "TEXCOORD_0": 14,
            "WEIGHTS_0": 36
          },
          "indices": 15,
          "material": 0,
          "mode": 4
        }
      ]
    },
    {
      "name": "Object_4",
      "primitives": [
        {
          "attributes": {
            "JOINTS_0": 37,
            "NORMAL": 17,
            "POSITION": 16,
            "TEXCOORD_0": 18,
            "WEIGHTS_0": 38
          },
          "indices": 19,
          "material": 0,
          "mode": 4
        }
      ]
    },
    {
      "name": "Object_5",
      "primitives": [
        {
          "attributes": {
            "JOINTS_0": 39,
            "NORMAL": 21,
            "POSITION": 20,
            "TEXCOORD_0": 22,
            "WEIGHTS_0": 40
          },
          "indices": 23,
          "material": 0,
          "mode": 4
        }
      ]
    },
    {
      "name": "Object_6",
      "primitives": [
        {
          "attributes": {
            "JOINTS_0": 41,
            "NORMAL": 25,
            "POSITION": 24,
            "TEXCOORD_0": 26,
            "WEIGHTS_0": 42
          },
          "indices": 27,
          "material": 0,
          "mode": 4
        }
      ]
    }
  ],
  "nodes": [
    {
      "children": [
        1
      ],
      "matrix": [
        1.0,
        0.0,
        0.0,
        0.0,
        0.0,
        2.220446049250313e-16,
        -1.0,
        0.0,
        0.0,
        1.0,
        2.220446049250313e-16,
        0.0,
        0.0,
        0.0,
        0.0,
        1.0
      ],
      "name": "Sketchfab_model"
    },
    {
      "children": [
        2
      ],
      "name": "root"
    },
    {
      "children": [
        3
      ],
      "matrix": [
        1.0,
        0.0,
        0.0,
        0.0,
        0.0,
        2.220446049250313e-16,
        1.0,
        0.0,
        0.0,
        -1.0,
        2.220446049250313e-16,
        0.0,
        0.0,
        0.0,
        0.0,
        1.0
      ],
      "name": "GLTF_SceneRootNode"
    },
    {
      "children": [
        4
      ],
      "name": "Armature_24"
    },
    {
      "children": [
        5,
        7,
        9,
        11,
        13,
        15,
        17,
        19,
        6,
        8,
        10,
        12,
        14,
        16,
        18
      ],
      "name": "GLTF_created_0"
    },
    {
      "children": [
        20
      ],
      "name": "GLTF_created_0_rootJoint"
    },
    {
      "name": "Body_17"
    },
    {
      "mesh": 0,
      "name": "Object_7",
      "skin": 0
    },
    {
      "name": "Ears_18"
    },
    {
      "mesh": 1,
      "name": "Object_9",
      "skin": 0
    },
    {
      "name": "Eyes_19"
    },
    {
      "mesh": 2,
      "name": "Object_11",
      "skin": 0
    },
    {
      "name": "Feet_20"
    },
    {
      "mesh": 3,
      "name": "Object_13",
      "skin": 0
    },
    {
      "name": "Hands_21"
    },
    {
      "mesh": 4,
      "name": "Object_15",
      "skin": 0
    },
    {
      "name": "Head_22"
    },
    {
      "mesh": 5,
      "name": "Object_17",
      "skin": 0
    },
    {
      "name": "Tail_23"
    },
    {
      "mesh": 6,
      "name": "Object_19",
      "skin": 0
    },
    {
      "children": [
        21,
        23,
        28,
        29,
        33,
        35
      ],
      "name": "Root_16",
      "rotation": [
        0.1357804238796234,
        -0.10164227336645126,
        0.5905885696411133,
        0.7889472246170044
      ],
      "translation": [
        0.33461374044418335,
        0.36286094784736633,
        0.02557288482785225
      ]
    },
    {
      "children": [
        22
      ],
      "name": "Shoulder.R_2",
      "rotation": [
        0.17998431622982025,
        0.32367318868637085,
        0.29859837889671326,
        0.8795909881591797
      ],
      "scale": [
        1.0000001192092896,
        1.0,
        1.0
      ],
      "translation": [
        -0.0754103735089302,
        0.1974010020494461,
        0.05851756036281586
      ]
    },
    {
      "name": "Hand.R_1",
      "rotation": [
        -9.627192376626681e-09,
        -3.79232956149167e-09,
        0.045059964060783386,
        0.9989842772483826
      ],
      "scale": [
        1.0,
        0.9999999403953552,
        1.0
      ],
      "translation": [
        -7.450580596923828e-09,
        0.3981916606426239,
        4.440892098500626e-16
      ]
    },
    {
      "children": [
        24,
        26
      ],
      "name": "Head_7",
      "rotation": [
        -0.07190857827663422,
        0.33030036091804504,
        -0.22349442541599274,
        0.9142106175422668
      ],
      "scale": [
        0.9575381875038147,
        0.9575383067131042,
        0.9575382471084595
      ],
      "translation": [
        -0.16942358016967773,
        0.3787849247455597,
        0.013799813576042652
      ]
    },
    {
      "children": [
        25
      ],
      "name": "Earbase.R_4",
      "rotation": [
        -0.036834631115198135,
        -0.04183243215084076,
        0.6581212282180786,
        0.7508460283279419
      ],
      "scale": [
        0.9999999403953552,
        1.0,
        1.0
      ],
      "translation": [
        0.0,
        0.4392964839935303,
        0.0
      ]
    },
    {
      "name": "Ear.R_3",
      "rotation": [
        0.17248134315013885,
        -0.0247090682387352,
        -0.12423224002122879,
        0.9768346548080444
      ],
      "scale": [
        0.9999999403953552,
        1.0,
        0.9999999403953552
      ],
      "translation": [
        0.0,
        0.4132212996482849,
        0.0
      ]
    },
    {
      "children": [
        27
      ],
      "name": "Earbase.L_6",
      "rotation": [
        -0.03433810919523239,
        0.03021378070116043,
        -0.6553310751914978,
        0.7539557218551636
      ],
      "scale": [
        1.0,
        0.9999999403953552,
        0.9999999403953552
      ],
      "translation": [
        0.0,
        0.4392964839935303,
        0.0
      ]
    },
    {
      "name": "Ear.L_5",
      "rotation": [
        0.026672761887311935,
        0.0186832994222641,
        0.07557392120361328,
        0.9966083765029907
      ],
      "scale": [
        1.0,
        1.0,
        0.9999999403953552
      ],
      "translation": [
        0.0,
        0.4132212996482849,
        0.0
      ]
    },
    {
      "name": "Foot.R_8",
      "rotation": [
        -0.5467859506607056,
        -0.3403852880001068,
        0.7538593411445618,
        0.12984302639961243
      ],
      "scale": [
        0.9999998807907104,
        0.9999998807907104,
        0.9999998807907104
      ],
      "translation": [
        -0.17911460995674133,
        -0.12535852193832397,
        0.10484663397073746
      ]
    },
    {
      "children": [
        30
      ],
      "name": "Tail1_12",
      "rotation": [
        -0.7716790437698364,
        -0.5366677641868591,
        -0.17755155265331268,
        0.29150429368019104
      ],
      "translation": [
        7.104662813617324e-08,
        0.0,
        -0.29799115657806396
      ]
    },
    {
      "children": [
        31
      ],
      "name": "Tail3_11",
      "rotation": [
        0.06891660392284393,
        0.024809708818793297,
        -0.3789759874343872,
        0.9225032329559326
      ],
      "translation": [
        0.0,
        0.16355904936790466,
        0.0
      ]
    },
    {
      "children": [
        32
      ],
      "name": "Bone.005_10",
      "rotation": [
        -0.023277979344129562,
        -0.012963742949068546,
        0.2459784597158432,
        0.9689090251922607
      ],
      "scale": [
        0.9999999403953552,
        1.0,
        1.0
      ],
      "translation": [
        0.0,
        0.16355904936790466,
        0.0
      ]
    },
    {
      "name": "Tail4_9",
      "rotation": [
        -0.052247054874897,
        -0.02191036567091942,
        0.2833215594291687,
        0.9573500156402588
      ],
      "scale": [
        0.9999999403953552,
        0.9999999403953552,
        0.9999999403953552
      ],
      "translation": [
        0.0,
        0.16355901956558228,
        0.0
      ]
    },
    {
      "children": [
        34
      ],
      "name": "Shoulder.L_14",
      "rotation": [
        0.4239785969257355,
        -0.632042407989502,
        -0.49987366795539856,
        0.41338956356048584
      ],
      "translation": [
        -0.051091380417346954,
        0.11737950891256332,
        -0.011932054534554482
      ]
    },
    {
      "name": "Hand.L_13",
      "rotation": [
        -9.627199482054039e-09,
        3.7923362228298174e-09,
        -0.045059964060783386,
        0.9989842772483826
      ],
      "scale": [
        1.0,
        0.9999999403953552,
        1.0
      ],
      "translation": [
        7.450580596923828e-09,
        0.3981916606426239,
        8.881784197001252e-16
      ]
    },
    {
      "name": "Foot.L_15",
      "rotation": [
        0.6814806461334229,
        0.4138031303882599,
        0.6030334234237671,
        0.02649153582751751
      ],
      "scale": [
        0.9999998807907104,
        0.9999998807907104,
        0.9999999403953552
      ],
      "translation": [
        0.11299378424882889,
        -0.12421335279941559,
        0.07841330766677856
      ]
    }
  ],
  "samplers": [
    {
      "magFilter": 9729,
      "minFilter": 9987,
      "wrapS": 10497,
      "wrapT": 10497
    }
  ],
  "scene": 0,
  "scenes": [
    {
      "name": "Sketchfab_Scene",
      "nodes": [
        0
      ]
    }
  ],
  "skins": [
    {
      "inverseBindMatrices": 28,
      "joints": [
        5,
        20,
        21,
        22,
        23,
        24,
        25,
        26,
        27,
        28,
        29,
        30,
        31,
        32,
        33,
        34,
        35
      ],
      "skeleton": 5
    }
  ],
  "textures": [
    {
      "sampler": 0,
      "source": 0
    }
  ]
}
